Run_40001
nRows=4
nColumns=164

# SIMM Motion File Header:
name Run_40001
datacolumns 164
datarows 4
otherdata 1
range 0.08333300 0.10833300
endheader
time	pelvis_tilt	pelvis_list	pelvis_rotation	pelvis_tx	pelvis_ty	pelvis_tz	hip_flexion_r	hip_adduction_r	hip_rotation_r	knee_angle_r	ankle_angle_r	hip_flexion_l	hip_adduction_l	hip_rotation_l	knee_angle_l	ankle_angle_l	lumbar_extension	lumbar_bending	lumbar_rotation	arm_flex_r	arm_add_r	arm_rot_r	elbow_flex_r	pro_sup_r	arm_flex_l	arm_add_l	arm_rot_l	elbow_flex_l	pro_sup_l	subtalar_angle_r	mtp_angle_r	subtalar_angle_l	mtp_angle_l	wrist_flex_r	wrist_dev_r	wrist_flex_l	wrist_dev_l	LASI_tx	LASI_ty	LASI_tz	RASI_tx	RASI_ty	RASI_tz	LPSI_tx	LPSI_ty	LPSI_tz	RPSI_tx	RPSI_ty	RPSI_tz	RTH1_tx	RTH1_ty	RTH1_tz	RTH2_tx	RTH2_ty	RTH2_tz	RTH3_tx	RTH3_ty	RTH3_tz	LTH1_tx	LTH1_ty	LTH1_tz	LTH2_tx	LTH2_ty	LTH2_tz	LTH3_tx	LTH3_ty	LTH3_tz	RTB1_tx	RTB1_ty	RTB1_tz	RTB2_tx	RTB2_ty	RTB2_tz	RTB3_tx	RTB3_ty	RTB3_tz	LTB1_tx	LTB1_ty	LTB1_tz	LTB2_tx	LTB2_ty	LTB2_tz	LTB3_tx	LTB3_ty	LTB3_tz	RCAL_tx	RCAL_ty	RCAL_tz	RTOE_tx	RTOE_ty	RTOE_tz	RMT5_tx	RMT5_ty	RMT5_tz	LCAL_tx	LCAL_ty	LCAL_tz	LTOE_tx	LTOE_ty	LTOE_tz	LMT5_tx	LMT5_ty	LMT5_tz	LACR_tx	LACR_ty	LACR_tz	RACR_tx	RACR_ty	RACR_tz	CLAV_tx	CLAV_ty	CLAV_tz	C7_tx	C7_ty	C7_tz	RUA1_tx	RUA1_ty	RUA1_tz	RUA2_tx	RUA2_ty	RUA2_tz	RUA3_tx	RUA3_ty	RUA3_tz	RLEL_tx	RLEL_ty	RLEL_tz	RMEL_tx	RMEL_ty	RMEL_tz	LUA1_tx	LUA1_ty	LUA1_tz	LUA2_tx	LUA2_ty	LUA2_tz	LUA3_tx	LUA3_ty	LUA3_tz	LLEL_tx	LLEL_ty	LLEL_tz	LMEL_tx	LMEL_ty	LMEL_tz	RFAsuperior_tx	RFAsuperior_ty	RFAsuperior_tz	RFAradius_tx	RFAradius_ty	RFAradius_tz	RFAulna_tx	RFAulna_ty	RFAulna_tz	LFAsuperior_tx	LFAsuperior_ty	LFAsuperior_tz	LFAradius_tx	LFAradius_ty	LFAradius_tz	LFAulna_tx	LFAulna_ty	LFAulna_tz
      0.08333300	     -7.07639423	     -7.12550223	     -4.25511507	      1.09933714	      0.94264465	     -0.32220143	     18.15565558	     15.52968793	      3.39908826	    -44.66875311	     21.80701472	     38.50911062	     -8.24964199	     -2.50384099	   -131.88861484	     -6.64283607	     -6.84613897	     11.03038996	     10.18422638	    -22.20201752	    -11.56638893	     -9.27864676	     78.31367407	     68.07011997	    -35.68584541	    -17.16504848	      0.72717218	     83.84896564	     98.06319981	      0.00000000	      0.00000000	      0.00000000	      0.00000000	      0.00000000	      0.00000000	      0.00000000	      0.00000000	      1.11421559	      0.94803957	     -0.43771816	      1.10076292	      0.96249392	     -0.19948310	      0.94620912	      0.99924537	     -0.38591531	      0.93520721	      1.00575328	     -0.28899374	      1.03670076	      0.80745399	     -0.15533605	      1.12327300	      0.66770944	     -0.18345195	      1.07187867	      0.57008264	     -0.21162391	      1.08427335	      0.78488675	     -0.49759814	      1.20427760	      0.72375960	     -0.48819297	      1.18886856	      0.59026601	     -0.48286985	      1.08457260	      0.34301257	     -0.29186242	      1.01413578	      0.30987090	     -0.23481560	      0.97723736	      0.19588753	     -0.30504858	      1.12977279	      0.46296390	     -0.42057419	      1.03658488	      0.51810470	     -0.46456066	      0.93810919	      0.50722364	     -0.39648634	      0.79449707	      0.10558452	     -0.33001517	      1.00553861	      0.07217460	     -0.34597547	      0.98227278	      0.04525515	     -0.23825635	      0.82875586	      0.64148174	     -0.38215560	      0.77787828	      0.44190258	     -0.34993379	      0.75303795	      0.45562261	     -0.45496872	      1.10176495	      1.44285155	     -0.49365381	      1.11611788	      1.41591366	     -0.12314341	      1.18175875	      1.38172059	     -0.29020868	      1.06780762	      1.47387757	     -0.31431675	      1.08756206	      1.32634165	     -0.08257717	      1.08927485	      1.23689171	     -0.10430789	      1.00204969	      1.24099311	     -0.07872869	      0.97018446	      1.13101522	     -0.06340151	      0.95160712	      1.12926385	     -0.12854385	      1.04967112	      1.38426110	     -0.54432129	      0.97945018	      1.34889076	     -0.50935625	      1.00438819	      1.29239638	     -0.56715408	      0.89896876	      1.23255414	     -0.59654889	      0.87389605	      1.23024617	     -0.52864790	      1.05627278	      1.08720985	     -0.06484756	      1.17861258	      0.96572954	     -0.10741246	      1.12523459	      0.91963544	     -0.11202210	      0.96050528	      1.17103486	     -0.59896449	      1.06229036	      1.00918974	     -0.53314876	      1.00750035	      0.98914782	     -0.57194007
      0.09166700	     -7.30165663	     -6.55960778	     -4.11121527	      1.09928712	      0.94591310	     -0.32151960	     15.20760327	     14.81586602	      4.17092565	    -42.85598954	     21.10640497	     41.98485469	     -7.91583610	     -2.19109263	   -130.60510768	     -6.00745511	     -6.49885729	     10.11856720	     11.46446392	    -21.60044899	    -11.36360592	     -9.76174684	     81.43556041	     69.86241719	    -36.96492167	    -17.35398334	     -0.59869803	     83.98280080	     98.65690340	      0.00000000	      0.00000000	      0.00000000	      0.00000000	      0.00000000	      0.00000000	      0.00000000	      0.00000000	      1.11344786	      0.95177937	     -0.43782174	      1.10003223	      0.96388675	     -0.19800145	      0.94591740	      1.00313155	     -0.38567368	      0.93574201	      1.00904948	     -0.28754502	      1.03310336	      0.80975722	     -0.15463629	      1.11065499	      0.66613806	     -0.18375781	      1.05406736	      0.57067648	     -0.21094985	      1.08797578	      0.79171475	     -0.49841981	      1.21256115	      0.73860722	     -0.48834736	      1.20534459	      0.60490585	     -0.48534360	      1.05807480	      0.34214910	     -0.28943667	      0.98567596	      0.31130693	     -0.23432605	      0.94711310	      0.19800559	     -0.30363187	      1.15391570	      0.47068611	     -0.42187363	      1.05621301	      0.51878705	     -0.46527635	      0.95957844	      0.50004584	     -0.39751663	      0.76294524	      0.11228842	     -0.32865567	      0.97248092	      0.07299099	     -0.34544593	      0.94820533	      0.04462216	     -0.23890938	      0.83847759	      0.62497683	     -0.38167527	      0.80611520	      0.42136732	     -0.35210763	      0.77968365	      0.43448711	     -0.45708711	      1.09747762	      1.44641312	     -0.49406006	      1.12062345	      1.42105086	     -0.12440094	      1.18228806	      1.38577109	     -0.29298673	      1.06776290	      1.47743301	     -0.31426342	      1.09353231	      1.33143697	     -0.08341515	      1.09673919	      1.24192436	     -0.10436581	      1.00936814	      1.24470837	     -0.07806106	      0.98026210	      1.13368342	     -0.06200991	      0.96033713	      1.13146420	     -0.12714742	      1.04296423	      1.38981713	     -0.54343575	      0.97375929	      1.35481709	     -0.50546284	      0.99546579	      1.29900556	     -0.56567856	      0.88784978	      1.24113999	     -0.59214257	      0.86605004	      1.23783826	     -0.52301557	      1.06907890	      1.09404415	     -0.06548165	      1.19745909	      0.98198296	     -0.11405314	      1.14757681	      0.93288048	     -0.11602052	      0.94766738	      1.17866584	     -0.59821291	      1.05018171	      1.01493097	     -0.53834390	      0.99434736	      0.99632062	     -0.57546888
      0.10000000	     -7.54078854	     -5.84461491	     -3.99012110	      1.09963979	      0.94963480	     -0.32097316	     12.21439389	     13.89434818	      5.00081395	    -40.82884908	     19.91805858	     45.20958075	     -7.43598984	     -2.10185141	   -128.83209226	     -5.64142167	     -6.06207719	      9.06506338	     12.71905321	    -21.11542270	    -11.22688310	    -10.28269891	     84.57896118	     71.56283091	    -38.32077376	    -17.60990255	     -1.92139764	     84.41840034	     99.02179177	      0.00000000	      0.00000000	      0.00000000	      0.00000000	      0.00000000	      0.00000000	      0.00000000	      0.00000000	      1.11314622	      0.95621002	     -0.43776504	      1.09977698	      0.96562167	     -0.19685370	      0.94595117	      1.00762279	     -0.38537065	      0.93678346	      1.01271526	     -0.28650411	      1.02907907	      0.81232585	     -0.15419491	      1.09798764	      0.66541963	     -0.18419464	      1.03625503	      0.57242197	     -0.21029877	      1.09192326	      0.79911441	     -0.49929663	      1.22023507	      0.75410427	     -0.48838790	      1.22095107	      0.62050041	     -0.48792945	      1.03171979	      0.34272739	     -0.28747066	      0.95766575	      0.31404370	     -0.23350715	      0.91747256	      0.20126691	     -0.30193925	      1.17731910	      0.47880238	     -0.42306687	      1.07540756	      0.51940096	     -0.46590487	      0.98097138	      0.49239140	     -0.39847005	      0.73201442	      0.12014346	     -0.32692584	      0.93954861	      0.07399215	     -0.34479850	      0.91422596	      0.04423782	     -0.23918995	      0.84862744	      0.60680128	     -0.38102053	      0.83533320	      0.40059195	     -0.35428507	      0.80708413	      0.41265375	     -0.45901436	      1.09323698	      1.45079305	     -0.49439272	      1.12501682	      1.42671939	     -0.12578033	      1.18276205	      1.39047654	     -0.29581895	      1.06771032	      1.48142106	     -0.31435341	      1.09951978	      1.33702243	     -0.08434764	      1.10391978	      1.24762225	     -0.10439735	      1.01643544	      1.24926066	     -0.07723648	      0.98978744	      1.13731259	     -0.06055732	      0.96896344	      1.13475365	     -0.12576498	      1.03637451	      1.39631202	     -0.54240003	      0.96814973	      1.36153477	     -0.50183221	      0.98676002	      1.30653745	     -0.56416419	      0.87701221	      1.25048761	     -0.58749158	      0.85856123	      1.24616180	     -0.51735413	      1.08110767	      1.10183241	     -0.06593320	      1.21508559	      0.99957213	     -0.12051616	      1.16879183	      0.94757650	     -0.12007348	      0.93538714	      1.18739851	     -0.59714978	      1.03902974	      1.02218554	     -0.54296064	      0.98210885	      1.00465856	     -0.57832492
      0.10833300	     -7.82602931	     -4.97984355	     -3.89262502	      1.10046502	      0.95424015	     -0.32057756	      9.25231692	     12.75066573	      5.84999079	    -38.61168703	     18.01340783	     48.13726644	     -6.84995742	     -2.27108480	   -126.44414326	     -5.43489075	     -5.49943159	      7.88233587	     13.91215668	    -20.84141837	    -11.13962628	    -10.81188189	     87.79511126	     73.08730039	    -39.77319566	    -17.91833405	     -3.18187204	     85.26604547	     99.00439623	      0.00000000	      0.00000000	      0.00000000	      0.00000000	      0.00000000	      0.00000000	      0.00000000	      0.00000000	      1.11360899	      0.96175198	     -0.43745493	      1.10019767	      0.96802466	     -0.19614377	      0.94649608	      1.01306176	     -0.38493055	      0.93852610	      1.01708871	     -0.28589308	      1.02449775	      0.81544425	     -0.15413983	      1.08538493	      0.66611540	     -0.18486337	      1.01859942	      0.57605740	     -0.20964374	      1.09625057	      0.80760650	     -0.50035899	      1.22691902	      0.77047109	     -0.48824994	      1.23498715	      0.63739767	     -0.49056014	      1.00575705	      0.34558231	     -0.28615864	      0.93052024	      0.31883265	     -0.23213269	      0.88879042	      0.20632731	     -0.29983633	      1.19946562	      0.48740380	     -0.42416075	      1.09385573	      0.51984110	     -0.46641471	      1.00222028	      0.48398884	     -0.39927723	      0.70231511	      0.12985172	     -0.32464925	      0.90691592	      0.07514933	     -0.34398181	      0.88043772	      0.04417298	     -0.23895159	      0.85967638	      0.58605725	     -0.38012049	      0.86619935	      0.37945926	     -0.35645724	      0.83581296	      0.38981393	     -0.46062099	      1.08912214	      1.45642847	     -0.49458601	      1.12920936	      1.43321358	     -0.12734547	      1.18317442	      1.39621043	     -0.29871780	      1.06767013	      1.48611620	     -0.31466903	      1.10541466	      1.34342162	     -0.08541012	      1.11059097	      1.25433734	     -0.10444825	      1.02308892	      1.25509704	     -0.07622672	      0.99842422	      1.14243104	     -0.05899859	      0.97728452	      1.13969851	     -0.12438261	      1.03008798	      1.40421344	     -0.54111376	      0.96277694	      1.36950203	     -0.49859942	      0.97852742	      1.31544348	     -0.56258095	      0.86679098	      1.26102271	     -0.58258014	      0.85165442	      1.25565378	     -0.51172767	      1.09185924	      1.11110255	     -0.06613218	      1.23063299	      1.01914186	     -0.12664005	      1.18807845	      0.96442118	     -0.12417968	      0.92415253	      1.19780092	     -0.59558710	      1.02938095	      1.03172432	     -0.54669565	      0.97133972	      1.01476572	     -0.58011252
